<svg width="44" height="44" fill="none" xmlns="http://www.w3.org/2000/svg"><g clip-path="url(#clip0)" fill="#000"><path d="M20.303 29.843a.86.86 0 1 0-1.218-1.216.86.86 0 1 0 1.218 1.216zM16.227 9.45c0 5.211 4.247 9.451 9.468 9.451 5.222 0 9.47-4.24 9.47-9.45 0-5.212-4.248-9.451-9.47-9.451-5.22 0-9.468 4.24-9.468 9.45zm17.216 0c0 4.264-3.475 7.733-7.747 7.733-4.273 0-7.748-3.469-7.748-7.733 0-4.263 3.476-7.732 7.747-7.732 4.273 0 7.748 3.47 7.748 7.732z"/><path d="M9.958 43.746a.862.862 0 0 0 1.215.007l4.174-4.104a2.593 2.593 0 0 0 .612-2.666l.898-.864a2.57 2.57 0 0 1 1.793-.723h11.443c2.03 0 3.95-.778 5.404-2.19.06-.059-.454.546 7.807-9.309a3.436 3.436 0 0 0-.409-4.843 3.457 3.457 0 0 0-4.83.383l-5.08 5.21a3.462 3.462 0 0 0-2.677-1.278H20.71a11.125 11.125 0 0 0-4.31-.86c-4.146 0-7.765 1.911-9.707 5.494a2.574 2.574 0 0 0-2.303.712L.294 32.814a.858.858 0 0 0-.001 1.212l9.665 9.72zm6.44-19.518a9.4 9.4 0 0 1 3.79.787.862.862 0 0 0 .345.072h9.775c.934 0 1.722.76 1.722 1.718 0 .948-.772 1.718-1.722 1.718h-7.023a.86.86 0 1 0 0 1.718h7.023a3.444 3.444 0 0 0 3.413-3.885c4.914-5.041 5.607-5.75 5.637-5.785a1.73 1.73 0 0 1 2.427-.205 1.72 1.72 0 0 1 .202 2.425l-7.721 9.213a6 6 0 0 1-4.173 1.674H18.65a4.284 4.284 0 0 0-2.988 1.205l-.731.704-6.744-6.73c1.576-2.951 4.534-4.63 8.212-4.63zm-10.79 5.701a.86.86 0 0 1 1.065-.12c.15.09-.278-.299 7.456 7.41a.86.86 0 0 1 .005 1.21l-3.558 3.499-8.458-8.506 3.49-3.493zM24.663 4.296v1.007a2.582 2.582 0 0 0-1.722 2.43 2.583 2.583 0 0 0 2.582 2.577.86.86 0 0 1 .861.859.86.86 0 0 1-.86.859c-.368 0-.766-.23-1.118-.65a.862.862 0 0 0-1.213-.105.858.858 0 0 0-.105 1.21c.46.547 1.001.928 1.575 1.12v1.002a.86.86 0 0 0 1.721 0V13.6a2.582 2.582 0 0 0 1.722-2.43 2.583 2.583 0 0 0-2.583-2.578.86.86 0 0 1-.86-.859c0-.473.386-.859.86-.859.305 0 .627.155.931.45.342.33.887.32 1.218-.02a.858.858 0 0 0-.02-1.216 3.327 3.327 0 0 0-1.268-.79V4.296a.86.86 0 0 0-1.721 0z"/></g><defs><clipPath id="clip0"><path fill="#fff" d="M0 0h44v44H0z"/></clipPath></defs></svg>