<svg width="44" height="44" fill="none" xmlns="http://www.w3.org/2000/svg"><path d="M43.355 32.384h-1.012l-9.49-15.816a2.032 2.032 0 0 0-2.638-.768l-1.199.6-5.48-5.48a2.025 2.025 0 0 0-3 .154L12.91 20.46l-.012-.005a2.023 2.023 0 0 0-2.393.617L1.707 32.384H.645a.645.645 0 0 0 0 1.289h42.71a.645.645 0 0 0 0-1.29zM21.537 11.887a.725.725 0 0 1 .531-.27c.21-.01.408.065.556.214l5.539 5.539-.306 1.044a.644.644 0 1 0 1.238.362l.334-1.141 1.363-.682c.34-.17.76-.048.956.279l9.091 15.152h-4.131l-9.243-8.037.838-2.865a.645.645 0 1 0-1.237-.362l-.672 2.296-4.464-3.882a2.014 2.014 0 0 0-2.622-.028l-2.928 2.44-2.238-.958 7.395-9.1zm.185 20.497l-4.44-9.512 2.852-2.375a.73.73 0 0 1 .95.01l13.66 11.877H21.721zm-10.2-10.52a.733.733 0 0 1 .868-.224l3.619 1.55 4.29 9.194H8.629l2.912-5.243a.644.644 0 1 0-1.127-.626l-3.26 5.869H3.34l8.183-10.52z" fill="#000"/></svg>