<svg width="32" height="44" fill="none" xmlns="http://www.w3.org/2000/svg"><path d="M29.685 0H8.397l-.024.001a.994.994 0 0 0-.113.012h-.002a.714.714 0 0 0-.19.068l-.006.003a.706.706 0 0 0-.08.05l-.016.013a.72.72 0 0 0-.072.061L.29 7.812a.72.72 0 0 0-.062.072L.216 7.9a.714.714 0 0 0-.05.08l-.003.005a.719.719 0 0 0-.036.082l-.006.017a.7.7 0 0 0-.025.091v.004a.737.737 0 0 0-.013.112v33.476A2.236 2.236 0 0 0 2.314 44h27.37a2.236 2.236 0 0 0 2.233-2.233V2.233A2.236 2.236 0 0 0 29.685 0zm-22 2.433v4.362a.809.809 0 0 1-.808.808H2.515l5.17-5.17zm22.808 39.334a.809.809 0 0 1-.808.807H2.315a.809.809 0 0 1-.807-.807V9.028h5.369A2.236 2.236 0 0 0 9.11 6.795v-5.37h20.575a.81.81 0 0 1 .808.808v39.534z" fill="#181725"/><path d="M6.877 12.069h18.246a.713.713 0 1 0 0-1.425H6.877a.713.713 0 1 0 0 1.425zm0 3.801h18.246a.713.713 0 1 0 0-1.425H6.877a.713.713 0 1 0 0 1.425zm0 3.802h18.246a.713.713 0 1 0 0-1.426H6.877a.713.713 0 1 0 0 1.426zm0 3.801h18.246a.713.713 0 1 0 0-1.426H6.877a.713.713 0 1 0 0 1.426zm0 3.801h18.246a.713.713 0 1 0 0-1.425H6.877a.713.713 0 0 0 0 1.425zM16 31.17H6.877a.713.713 0 1 0 0 1.426H16a.713.713 0 1 0 0-1.426zm0 3.802H6.877a.713.713 0 1 0 0 1.425H16a.713.713 0 1 0 0-1.425zm6.462-2.282a1.094 1.094 0 0 0 0 2.186 1.094 1.094 0 0 0 0-2.185z" fill="#181725"/><path d="M22.462 29.65a4.139 4.139 0 0 0-4.134 4.134 4.139 4.139 0 0 0 4.134 4.134 4.139 4.139 0 0 0 4.134-4.134 4.139 4.139 0 0 0-4.134-4.134zm0 6.842a2.711 2.711 0 0 1-2.708-2.708 2.711 2.711 0 0 1 2.708-2.709 2.711 2.711 0 0 1 2.709 2.709 2.711 2.711 0 0 1-2.709 2.708z" fill="#181725"/></svg>