<svg width="44" height="44" fill="none" xmlns="http://www.w3.org/2000/svg"><g clip-path="url(#clip0)" fill="#000"><path d="M43.267 13.93h-.807a3.954 3.954 0 0 0-2.429-2.965l-6.914-2.766a12.206 12.206 0 0 0-9.03 0l-6.915 2.766a3.954 3.954 0 0 0-2.432 2.965H13.2a.733.733 0 0 0-.733.733v1.467c0 .194.077.38.214.518l.215.215H4.573a2.186 2.186 0 0 0-1.967 1.215L.387 22.515l-.045.103-.037.089a3.692 3.692 0 0 0-.197.58v.045a3.52 3.52 0 0 0-.108.82v8.11c0 .406.328.734.733.734H2.42a5.134 5.134 0 0 0 9.827 0h7.773a5.125 5.125 0 0 0 9.313 1.164 5.126 5.126 0 0 0 9.317-1.164h2.417c.336 0 .63-.229.711-.555l.595-2.378h.894A.733.733 0 0 0 44 29.33V14.663a.733.733 0 0 0-.733-.733zm-25.552-1.604L24.63 9.56a10.733 10.733 0 0 1 7.94 0l6.915 2.766c.71.281 1.253.872 1.474 1.604H16.24a2.503 2.503 0 0 1 1.474-1.604zm-6.175 16.27a5.12 5.12 0 0 0-8.413 0h-1.66v-4.4h10.266a.733.733 0 0 0 .734-.733V18.33h1.466v10.266H11.54zM11 22.73H8.067v-4.4H11v4.4zm-4.4-4.4v4.4H1.92l2-3.992a.732.732 0 0 1 .656-.408H6.6zm-5.133 13.2v-1.467h.953c-.144.475-.219.97-.22 1.467h-.733zm5.866 3.666a3.667 3.667 0 1 1 0-7.333 3.667 3.667 0 0 1 0 7.333zm5.134-3.666a5.104 5.104 0 0 0-.22-1.467h7.773a5.1 5.1 0 0 0-.22 1.467h-7.333zm12.466 3.666a3.667 3.667 0 1 1 0-7.333 3.667 3.667 0 0 1 0 7.333zm8.8 0a3.667 3.667 0 1 1 0-7.333 3.667 3.667 0 0 1 0 7.333zm6.761-3.666h-1.627a5.104 5.104 0 0 0-.22-1.467h2.21l-.363 1.467zm2.04-2.934H37.94a5.12 5.12 0 0 0-8.413 0h-.387a5.12 5.12 0 0 0-8.413 0H15.4v-11a.74.74 0 0 0-.215-.518l-1.252-1.252v-.43h28.6v13.2z"/><path d="M7.333 29.33a2.2 2.2 0 1 0 0 4.4 2.2 2.2 0 0 0 0-4.4zm0 2.933a.733.733 0 1 1 0-1.467.733.733 0 0 1 0 1.467zm17.6-2.933a2.2 2.2 0 1 0 0 4.4 2.2 2.2 0 0 0 0-4.4zm0 2.933a.733.733 0 1 1 0-1.467.733.733 0 0 1 0 1.467zm8.8-2.933a2.2 2.2 0 1 0 0 4.4 2.2 2.2 0 0 0 0-4.4zm0 2.933a.733.733 0 1 1 0-1.467.733.733 0 0 1 0 1.467zM26.4 9.53h1.467v1.466H26.4V9.529zm2.933 1.466H30.8v1.467h-1.467v-1.467zm-7.333 0h1.467v1.467H22v-1.467zm11.733 0H35.2v1.467h-1.467v-1.467zm-14.666 6.6h1.466v7.334h-1.466v-7.334zm4.4 0h1.466v7.334h-1.466v-7.334zm4.4 0h1.466v7.334h-1.466v-7.334zm4.4 0h1.466v7.334h-1.466v-7.334zm4.4 0h1.466v7.334h-1.466v-7.334z"/></g><defs><clipPath id="clip0"><path fill="#fff" d="M0 0h44v44H0z"/></clipPath></defs></svg>