<svg width="36" height="44" fill="none" xmlns="http://www.w3.org/2000/svg"><path d="M31.933 0H4.067A3.631 3.631 0 0 0 .4 3.667v36.666A3.631 3.631 0 0 0 4.067 44h27.866a3.631 3.631 0 0 0 3.667-3.667V3.667A3.631 3.631 0 0 0 31.933 0zm2.2 40.333c0 1.247-.953 2.2-2.2 2.2H4.067c-1.247 0-2.2-.953-2.2-2.2V3.667c0-1.247.953-2.2 2.2-2.2h27.866c1.247 0 2.2.953 2.2 2.2v36.666z" fill="#181725"/><path d="M28.267 3.667H7.733c-1.246 0-2.2.953-2.2 2.2v5.866c0 1.247.954 2.2 2.2 2.2h20.534c1.246 0 2.2-.953 2.2-2.2V5.867c0-1.247-.954-2.2-2.2-2.2zM29 11.733c0 .44-.293.733-.733.733H7.733c-.44 0-.733-.293-.733-.733V5.867c0-.44.293-.734.733-.734h20.534c.44 0 .733.294.733.734v5.866zM10.667 15.4H7.733c-1.246 0-2.2.953-2.2 2.2v2.933c0 1.247.954 2.2 2.2 2.2h2.934c1.246 0 2.2-.953 2.2-2.2V17.6c0-1.247-.954-2.2-2.2-2.2zm.733 5.133c0 .44-.293.733-.733.733H7.733c-.44 0-.733-.293-.733-.733V17.6c0-.44.293-.733.733-.733h2.934c.44 0 .733.293.733.733v2.933zm8.067-5.133h-2.933c-1.247 0-2.2.953-2.2 2.2v2.933c0 1.247.953 2.2 2.2 2.2h2.933c1.247 0 2.2-.953 2.2-2.2V17.6c0-1.247-.954-2.2-2.2-2.2zm.733 5.133c0 .44-.293.733-.733.733h-2.933c-.44 0-.734-.293-.734-.733V17.6c0-.44.293-.733.733-.733h2.934c.44 0 .733.293.733.733v2.933zm8.067-5.133h-2.934c-1.246 0-2.2.953-2.2 2.2v2.933c0 1.247.954 2.2 2.2 2.2h2.934c1.246 0 2.2-.953 2.2-2.2V17.6c0-1.247-.954-2.2-2.2-2.2zM29 20.533c0 .44-.293.733-.733.733h-2.934c-.44 0-.733-.293-.733-.733V17.6c0-.44.293-.733.733-.733h2.934c.44 0 .733.293.733.733v2.933zM10.667 24.2H7.733c-1.246 0-2.2.954-2.2 2.2v2.934c0 1.246.954 2.2 2.2 2.2h2.934c1.246 0 2.2-.954 2.2-2.2V26.4c0-1.246-.954-2.2-2.2-2.2zm.733 5.134c0 .44-.293.733-.733.733H7.733c-.44 0-.733-.294-.733-.733V26.4c0-.44.293-.733.733-.733h2.934c.44 0 .733.293.733.733v2.934zm8.067-5.134h-2.933c-1.247 0-2.2.954-2.2 2.2v2.934c0 1.246.953 2.2 2.2 2.2h2.933c1.247 0 2.2-.954 2.2-2.2V26.4c0-1.246-.954-2.2-2.2-2.2zm.733 5.134c0 .44-.293.733-.733.733h-2.933c-.44 0-.734-.294-.734-.733V26.4c0-.44.293-.733.733-.733h2.934c.44 0 .733.293.733.733v2.934zM10.667 33H7.733c-1.246 0-2.2.953-2.2 2.2v2.933c0 1.247.954 2.2 2.2 2.2h2.934c1.246 0 2.2-.953 2.2-2.2V35.2c0-1.247-.954-2.2-2.2-2.2zm.733 5.133c0 .44-.293.734-.733.734H7.733c-.44 0-.733-.294-.733-.734V35.2c0-.44.293-.733.733-.733h2.934c.44 0 .733.293.733.733v2.933zM19.467 33h-2.933c-1.247 0-2.2.953-2.2 2.2v2.933c0 1.247.953 2.2 2.2 2.2h2.933c1.247 0 2.2-.953 2.2-2.2V35.2c0-1.247-.954-2.2-2.2-2.2zm.733 5.133c0 .44-.293.734-.733.734h-2.933c-.44 0-.734-.294-.734-.734V35.2c0-.44.293-.733.733-.733h2.934c.44 0 .733.293.733.733v2.933zM28.267 24.2h-2.934c-1.246 0-2.2.954-2.2 2.2v11.733c0 1.247.954 2.2 2.2 2.2h2.934c1.246 0 2.2-.953 2.2-2.2V26.4c0-1.246-.954-2.2-2.2-2.2zM29 38.133c0 .44-.293.734-.733.734h-2.934c-.44 0-.733-.293-.733-.733V26.4c0-.44.293-.733.733-.733h2.934c.44 0 .733.293.733.733v11.733z" fill="#181725"/></svg>