<svg width="32" height="44" viewBox="0 0 32 44" fill="none" xmlns="http://www.w3.org/2000/svg">
<path d="M29.6847 0H8.39743C8.38925 0 8.38127 0.000950324 8.3731 0.00123542C8.36512 0.00152052 8.35732 0.00190065 8.34934 0.00237581C8.31893 0.00437149 8.2889 0.00779266 8.25963 0.0134946C8.25906 0.0135896 8.25859 0.0135896 8.25802 0.0137797C8.22637 0.0200518 8.19577 0.0288898 8.16574 0.0391533C8.16032 0.041054 8.1549 0.0430497 8.14958 0.0451404C8.12136 0.0555939 8.0938 0.067473 8.06738 0.0812527C8.06567 0.082203 8.06386 0.0828682 8.06215 0.0838186C8.0344 0.0986436 8.00808 0.115559 7.98271 0.133806C7.97691 0.137892 7.9713 0.142264 7.9656 0.14654C7.94042 0.165736 7.91609 0.186073 7.89376 0.208311C7.89366 0.208406 7.89347 0.208501 7.89338 0.208596L0.290783 7.81119C0.290688 7.81128 0.290593 7.81138 0.290498 7.81147C0.268166 7.8339 0.247829 7.85823 0.228632 7.88341C0.224356 7.88911 0.220079 7.89472 0.215898 7.90042C0.197651 7.9258 0.180736 7.95212 0.165911 7.97978C0.164961 7.98168 0.164105 7.98358 0.163155 7.98548C0.14947 8.01171 0.137686 8.03898 0.127233 8.06701C0.125142 8.07262 0.123052 8.07813 0.121056 8.08384C0.110792 8.11358 0.102049 8.14399 0.0957767 8.17545C0.0955866 8.17659 0.0954919 8.17782 0.0952068 8.17896C0.0896949 8.20757 0.086369 8.23684 0.0842783 8.26649C0.0837081 8.27485 0.0833279 8.28312 0.0830428 8.29148C0.0830428 8.29956 0.0820923 8.30735 0.0820923 8.31533V41.7667C0.0820923 42.9982 1.08392 44 2.31535 44H29.6847C30.9161 44 31.9179 42.9982 31.9179 41.7667V2.23326C31.9179 1.00183 30.9161 0 29.6847 0ZM7.68468 2.4334V6.79482C7.68468 7.24023 7.32233 7.60259 6.87691 7.60259H2.51549L7.68468 2.4334ZM30.4925 41.7667C30.4925 42.2122 30.1301 42.5745 29.6847 42.5745H2.31535C1.86994 42.5745 1.50758 42.2122 1.50758 41.7667V9.02808H6.87691C8.10834 9.02808 9.11017 8.02625 9.11017 6.79482V1.42549H29.6847C30.1301 1.42549 30.4925 1.78784 30.4925 2.23326V41.7667Z" fill="#181725"/>
<path d="M6.87693 12.069H25.1231C25.5168 12.069 25.8359 11.75 25.8359 11.3563C25.8359 10.9626 25.5168 10.6436 25.1231 10.6436H6.87693C6.4833 10.6436 6.16418 10.9626 6.16418 11.3563C6.16418 11.75 6.4833 12.069 6.87693 12.069Z" fill="#181725"/>
<path d="M6.87693 15.8703H25.1231C25.5168 15.8703 25.8359 15.5513 25.8359 15.1576C25.8359 14.7638 25.5168 14.4448 25.1231 14.4448H6.87693C6.4833 14.4448 6.16418 14.7638 6.16418 15.1576C6.16418 15.5513 6.4833 15.8703 6.87693 15.8703Z" fill="#181725"/>
<path d="M6.87693 19.6716H25.1231C25.5168 19.6716 25.8359 19.3526 25.8359 18.9588C25.8359 18.5651 25.5168 18.2461 25.1231 18.2461H6.87693C6.4833 18.2461 6.16418 18.5651 6.16418 18.9588C6.16418 19.3526 6.4833 19.6716 6.87693 19.6716Z" fill="#181725"/>
<path d="M6.87693 23.4728H25.1231C25.5168 23.4728 25.8359 23.1538 25.8359 22.7601C25.8359 22.3664 25.5168 22.0474 25.1231 22.0474H6.87693C6.4833 22.0474 6.16418 22.3664 6.16418 22.7601C6.16418 23.1538 6.4833 23.4728 6.87693 23.4728Z" fill="#181725"/>
<path d="M6.87693 27.2741H25.1231C25.5168 27.2741 25.8359 26.9551 25.8359 26.5614C25.8359 26.1677 25.5168 25.8486 25.1231 25.8486H6.87693C6.4833 25.8486 6.16418 26.1677 6.16418 26.5614C6.16418 26.9551 6.4833 27.2741 6.87693 27.2741Z" fill="#181725"/>
<path d="M16 31.1704H6.87693C6.4833 31.1704 6.16418 31.4894 6.16418 31.8832C6.16418 32.2769 6.4833 32.5959 6.87693 32.5959H16C16.3937 32.5959 16.7128 32.2769 16.7128 31.8832C16.7128 31.4894 16.3937 31.1704 16 31.1704Z" fill="#181725"/>
<path d="M16 34.9717H6.87693C6.4833 34.9717 6.16418 35.2907 6.16418 35.6844C6.16418 36.0781 6.4833 36.3972 6.87693 36.3972H16C16.3937 36.3972 16.7128 36.0781 16.7128 35.6844C16.7128 35.2907 16.3937 34.9717 16 34.9717Z" fill="#181725"/>
<path d="M22.4622 32.6909C21.8596 32.6909 21.3693 33.1812 21.3693 33.7838C21.3693 34.3864 21.8596 34.8767 22.4622 34.8767C23.0648 34.8767 23.5551 34.3864 23.5551 33.7838C23.5551 33.1812 23.0648 32.6909 22.4622 32.6909Z" fill="#181725"/>
<path d="M22.4622 29.6499C20.1828 29.6499 18.3283 31.5044 18.3283 33.7838C18.3283 36.0633 20.1828 37.9177 22.4622 37.9177C24.7417 37.9177 26.5961 36.0633 26.5961 33.7838C26.5961 31.5044 24.7417 29.6499 22.4622 29.6499ZM22.4622 36.4922C20.9688 36.4922 19.7538 35.2772 19.7538 33.7838C19.7538 32.2904 20.9688 31.0754 22.4622 31.0754C23.9557 31.0754 25.1706 32.2904 25.1706 33.7838C25.1706 35.2772 23.9557 36.4922 22.4622 36.4922Z" fill="#181725"/>
</svg>
