<svg width="44" height="44" viewBox="0 0 44 44" fill="none" xmlns="http://www.w3.org/2000/svg">
<g clip-path="url(#clip0)">
<path d="M20.3031 29.8431C20.6391 29.5071 20.6391 28.9633 20.3031 28.6272C19.9668 28.2922 19.4219 28.2922 19.0852 28.6272C18.7495 28.9633 18.7495 29.5071 19.0852 29.8431C19.4219 30.1781 19.9668 30.1781 20.3031 29.8431Z" fill="black"/>
<path d="M16.2266 9.45044C16.2266 14.6614 20.4743 18.9012 25.6955 18.9012C30.9166 18.9012 35.1644 14.6614 35.1644 9.45044C35.1644 4.23947 30.9166 0 25.6955 0C20.4743 0 16.2266 4.23947 16.2266 9.45044ZM33.443 9.45044C33.443 13.7141 29.9675 17.1828 25.6955 17.1828C21.4235 17.1828 17.948 13.7141 17.948 9.45044C17.948 5.18713 21.4235 1.71841 25.6955 1.71841C29.9675 1.71841 33.443 5.18713 33.443 9.45044Z" fill="black"/>
<path d="M9.95825 43.7458C10.2919 44.0815 10.8351 44.0852 11.1731 43.7528L15.3466 39.6493C16.0556 38.9417 16.2712 37.894 15.9594 36.9832L16.8571 36.1192C17.3405 35.6532 17.9768 35.3964 18.6495 35.3964H30.0932C32.1234 35.3964 34.0423 34.6183 35.497 33.2053C35.5569 33.1473 35.0426 33.7519 43.304 23.8972C44.5293 22.4504 44.346 20.2778 42.895 19.0535C41.4531 17.8407 39.293 18.0149 38.0644 19.4369L32.9848 24.6475C32.3434 23.8596 31.3653 23.3685 30.3084 23.3685H20.7093C19.3434 22.7982 17.8941 22.5095 16.3987 22.5095C12.2535 22.5095 8.63404 24.4203 6.69161 28.0028C5.87327 27.848 5.0102 28.0951 4.3893 28.7148L0.29423 32.8139C-0.0401018 33.1486 -0.0407744 33.6901 0.292885 34.0258L9.95825 43.7458ZM16.3983 24.2276C17.7168 24.2276 18.9916 24.4924 20.188 25.0148C20.297 25.0624 20.4144 25.0869 20.5331 25.0869H30.3084C31.2418 25.0869 32.0302 25.8466 32.0302 26.805C32.0302 27.7527 31.258 28.5234 30.3084 28.5234H23.2851C22.8099 28.5234 22.4244 28.9081 22.4244 29.3825C22.4244 29.8571 22.8099 30.2415 23.2851 30.2415H30.3084C32.2071 30.2415 33.7517 28.7 33.7517 26.805C33.7517 26.654 33.7409 26.5042 33.7214 26.3559C38.6351 21.3148 39.328 20.6064 39.3576 20.5712C39.9711 19.8484 41.0602 19.7568 41.7847 20.3664C42.5099 20.9784 42.6017 22.0647 41.9865 22.7915L34.2656 32.0036C33.1382 33.0838 31.6579 33.6783 30.0932 33.6783H18.6495C17.5281 33.6783 16.4666 34.1063 15.6614 34.8828L14.9298 35.5874L8.18602 28.8571C9.76215 25.906 12.7197 24.2276 16.3983 24.2276ZM5.60756 29.929C5.89144 29.6457 6.32735 29.5946 6.67345 29.8081C6.82245 29.8988 6.39462 29.51 14.1293 37.2189C14.4734 37.5623 14.4549 38.1095 14.134 38.4297L10.5761 41.928L2.11792 33.4219L5.60756 29.929Z" fill="black"/>
<path d="M24.6625 4.2959V5.30264C23.6606 5.65714 22.9408 6.61218 22.9408 7.73239C22.9408 9.15338 24.0992 10.3098 25.5233 10.3098C25.9979 10.3098 26.384 10.6952 26.384 11.1689C26.384 11.6425 25.9979 12.0279 25.5233 12.0279C25.1556 12.0279 24.7584 11.7973 24.4056 11.378C24.0995 11.0148 23.5566 10.9681 23.1927 11.2733C22.8288 11.5788 22.7817 12.1206 23.0878 12.4838C23.5479 13.03 24.0891 13.4106 24.6625 13.6027V14.6054C24.6625 15.08 25.048 15.4644 25.5233 15.4644C25.9985 15.4644 26.384 15.08 26.384 14.6054V13.5986C27.386 13.2438 28.1058 12.2888 28.1058 11.1689C28.1058 9.74756 26.9474 8.59143 25.5233 8.59143C25.0487 8.59143 24.6625 8.20605 24.6625 7.73239C24.6625 7.25873 25.0487 6.87302 25.5233 6.87302C25.8283 6.87302 26.1502 7.02844 26.4543 7.32217C26.796 7.65216 27.3409 7.6431 27.6715 7.30237C28.0022 6.9613 27.9931 6.41748 27.6517 6.08749C27.2148 5.66553 26.7775 5.42685 26.384 5.2966V4.2959C26.384 3.82123 25.9985 3.43652 25.5233 3.43652C25.048 3.43652 24.6625 3.82123 24.6625 4.2959Z" fill="black"/>
</g>
<defs>
<clipPath id="clip0">
<rect width="44" height="44" fill="white"/>
</clipPath>
</defs>
</svg>
