<svg width="36" height="44" viewBox="0 0 36 44" fill="none" xmlns="http://www.w3.org/2000/svg">
<path d="M31.9333 0H4.06672C2.01333 0 0.400024 1.6133 0.400024 3.6667V40.3334C0.400024 42.3867 2.01333 44 4.06672 44H31.9334C33.9867 44 35.6001 42.3867 35.6001 40.3333V3.6667C35.6 1.6133 33.9867 0 31.9333 0ZM34.1333 40.3333C34.1333 41.58 33.18 42.5333 31.9333 42.5333H4.06672C2.82002 42.5333 1.86672 41.58 1.86672 40.3333V3.6667C1.86672 2.42 2.82002 1.4667 4.06672 1.4667H31.9334C33.1801 1.4667 34.1334 2.42 34.1334 3.6667V40.3333H34.1333Z" fill="#181725"/>
<path d="M28.2667 3.6665H7.73333C6.48663 3.6665 5.53333 4.61981 5.53333 5.86651V11.7332C5.53333 12.9799 6.48663 13.9332 7.73333 13.9332H28.2666C29.5133 13.9332 30.4666 12.9799 30.4666 11.7332V5.86651C30.4667 4.61981 29.5133 3.6665 28.2667 3.6665ZM29 11.7331C29 12.1731 28.7067 12.4664 28.2667 12.4664H7.73333C7.29333 12.4664 7.00002 12.1731 7.00002 11.7331V5.86651C7.00002 5.42651 7.29333 5.1332 7.73333 5.1332H28.2666C28.7066 5.1332 28.9999 5.42651 28.9999 5.86651V11.7331H29Z" fill="#181725"/>
<path d="M10.6668 15.3999H7.73345C6.48675 15.3999 5.53345 16.3532 5.53345 17.5999V20.5332C5.53345 21.7799 6.48675 22.7332 7.73345 22.7332H10.6668C11.9134 22.7332 12.8668 21.7799 12.8668 20.5332V17.5999C12.8668 16.3532 11.9134 15.3999 10.6668 15.3999ZM11.4001 20.5332C11.4001 20.9732 11.1068 21.2665 10.6668 21.2665H7.73345C7.29345 21.2665 7.00014 20.9732 7.00014 20.5332V17.5999C7.00014 17.1599 7.29345 16.8666 7.73345 16.8666H10.6668C11.1068 16.8666 11.4001 17.1599 11.4001 17.5999V20.5332Z" fill="#181725"/>
<path d="M19.4668 15.3999H16.5335C15.2868 15.3999 14.3335 16.3532 14.3335 17.5999V20.5332C14.3335 21.7799 15.2868 22.7332 16.5335 22.7332H19.4668C20.7135 22.7332 21.6668 21.7799 21.6668 20.5332V17.5999C21.6668 16.3532 20.7134 15.3999 19.4668 15.3999ZM20.2001 20.5332C20.2001 20.9732 19.9068 21.2665 19.4668 21.2665H16.5335C16.0935 21.2665 15.8002 20.9732 15.8002 20.5332V17.5999C15.8002 17.1599 16.0935 16.8666 16.5335 16.8666H19.4668C19.9068 16.8666 20.2001 17.1599 20.2001 17.5999V20.5332Z" fill="#181725"/>
<path d="M28.2667 15.3999H25.3334C24.0867 15.3999 23.1334 16.3532 23.1334 17.5999V20.5332C23.1334 21.7799 24.0867 22.7332 25.3334 22.7332H28.2667C29.5134 22.7332 30.4667 21.7799 30.4667 20.5332V17.5999C30.4667 16.3532 29.5133 15.3999 28.2667 15.3999ZM29 20.5332C29 20.9732 28.7067 21.2665 28.2667 21.2665H25.3334C24.8934 21.2665 24.6001 20.9732 24.6001 20.5332V17.5999C24.6001 17.1599 24.8934 16.8666 25.3334 16.8666H28.2667C28.7067 16.8666 29 17.1599 29 17.5999V20.5332Z" fill="#181725"/>
<path d="M10.6668 24.2002H7.73345C6.48675 24.2002 5.53345 25.1535 5.53345 26.4002V29.3335C5.53345 30.5802 6.48675 31.5335 7.73345 31.5335H10.6668C11.9134 31.5335 12.8668 30.5802 12.8668 29.3335V26.4002C12.8668 25.1535 11.9134 24.2002 10.6668 24.2002ZM11.4001 29.3335C11.4001 29.7735 11.1068 30.0668 10.6668 30.0668H7.73345C7.29345 30.0668 7.00014 29.7735 7.00014 29.3335V26.4002C7.00014 25.9602 7.29345 25.6669 7.73345 25.6669H10.6668C11.1068 25.6669 11.4001 25.9602 11.4001 26.4002V29.3335Z" fill="#181725"/>
<path d="M19.4668 24.2002H16.5335C15.2868 24.2002 14.3335 25.1535 14.3335 26.4002V29.3335C14.3335 30.5802 15.2868 31.5335 16.5335 31.5335H19.4668C20.7135 31.5335 21.6668 30.5802 21.6668 29.3335V26.4002C21.6668 25.1535 20.7134 24.2002 19.4668 24.2002ZM20.2001 29.3335C20.2001 29.7735 19.9068 30.0668 19.4668 30.0668H16.5335C16.0935 30.0668 15.8002 29.7735 15.8002 29.3335V26.4002C15.8002 25.9602 16.0935 25.6669 16.5335 25.6669H19.4668C19.9068 25.6669 20.2001 25.9602 20.2001 26.4002V29.3335Z" fill="#181725"/>
<path d="M10.6668 33H7.73345C6.48675 33 5.53345 33.9533 5.53345 35.2V38.1333C5.53345 39.38 6.48675 40.3333 7.73345 40.3333H10.6668C11.9134 40.3333 12.8668 39.38 12.8668 38.1333V35.2C12.8668 33.9533 11.9134 33 10.6668 33ZM11.4001 38.1333C11.4001 38.5733 11.1068 38.8666 10.6668 38.8666H7.73345C7.29345 38.8666 7.00014 38.5733 7.00014 38.1333V35.2C7.00014 34.76 7.29345 34.4667 7.73345 34.4667H10.6668C11.1068 34.4667 11.4001 34.76 11.4001 35.2V38.1333Z" fill="#181725"/>
<path d="M19.4668 33H16.5335C15.2868 33 14.3335 33.9533 14.3335 35.2V38.1333C14.3335 39.38 15.2868 40.3333 16.5335 40.3333H19.4668C20.7135 40.3333 21.6668 39.38 21.6668 38.1333V35.2C21.6668 33.9533 20.7134 33 19.4668 33ZM20.2001 38.1333C20.2001 38.5733 19.9068 38.8666 19.4668 38.8666H16.5335C16.0935 38.8666 15.8002 38.5733 15.8002 38.1333V35.2C15.8002 34.76 16.0935 34.4667 16.5335 34.4667H19.4668C19.9068 34.4667 20.2001 34.76 20.2001 35.2V38.1333Z" fill="#181725"/>
<path d="M28.2667 24.2002H25.3334C24.0867 24.2002 23.1334 25.1535 23.1334 26.4002V38.1335C23.1334 39.3802 24.0867 40.3335 25.3334 40.3335H28.2667C29.5134 40.3335 30.4667 39.3802 30.4667 38.1335V26.4002C30.4667 25.1535 29.5133 24.2002 28.2667 24.2002ZM29 38.1335C29 38.5735 28.7067 38.8668 28.2667 38.8668H25.3334C24.8934 38.8668 24.6001 38.5735 24.6001 38.1335V26.4002C24.6001 25.9602 24.8934 25.6669 25.3334 25.6669H28.2667C28.7067 25.6669 29 25.9602 29 26.4002V38.1335Z" fill="#181725"/>
</svg>
