<svg width="44" height="44" viewBox="0 0 44 44" fill="none" xmlns="http://www.w3.org/2000/svg">
<g clip-path="url(#clip0)">
<path d="M43.2667 13.9296H42.4599C42.2154 12.5886 41.2976 11.4685 40.0311 10.9647L33.1167 8.19932C30.2171 7.04489 26.9858 7.04489 24.0865 8.19932L17.1725 10.9647C15.9045 11.4674 14.9854 12.5879 14.7401 13.9296H13.2C12.795 13.9296 12.4667 14.2579 12.4667 14.6629V16.1296C12.4667 16.324 12.544 16.5105 12.6815 16.648L12.8964 16.8629H4.57295C3.739 16.8597 2.97594 17.3312 2.6057 18.0785L0.387077 22.5154C0.381348 22.5272 0.346973 22.6057 0.341602 22.6182C0.327637 22.6497 0.318327 22.6758 0.305078 22.7066C0.223438 22.8943 0.157194 23.0883 0.10778 23.2867V23.3322C0.0397461 23.6004 0.00358073 23.8757 0 24.1522V32.2629C0 32.6679 0.328353 32.9962 0.733333 32.9962H2.41986C3.07513 35.1615 5.07103 36.6428 7.33333 36.6428C9.59564 36.6428 11.5915 35.1615 12.2468 32.9962H20.0199C20.6003 34.9456 22.2786 36.3671 24.2967 36.6192C26.3148 36.8713 28.291 35.9066 29.3333 34.16C30.3746 35.9088 32.3526 36.8756 34.3721 36.6235C36.392 36.3711 38.071 34.9474 38.6504 32.9962H41.0667C41.4029 32.9962 41.6962 32.7674 41.7782 32.4409L42.3726 30.0629H43.2667C43.6716 30.0629 44 29.7345 44 29.3296V14.6629C44 14.2579 43.6716 13.9296 43.2667 13.9296ZM17.7153 12.3265L24.6297 9.56035C27.1792 8.54521 30.0208 8.54521 32.5703 9.56035L39.4847 12.3257C40.1951 12.6072 40.738 13.198 40.9589 13.9296H16.2411C16.462 13.1984 17.0049 12.6079 17.7153 12.3265ZM11.5396 28.5962C10.5825 27.218 9.01126 26.3962 7.33333 26.3962C5.6554 26.3962 4.08418 27.218 3.12705 28.5962H1.46667V24.1962H11.7333C12.1383 24.1962 12.4667 23.8679 12.4667 23.4629V18.3296H13.9333V28.5962H11.5396ZM11 22.7296H8.06667V18.3296H11V22.7296ZM6.6 18.3296V22.7296H1.91999L3.91982 18.7381C4.043 18.4882 4.29723 18.3299 4.57617 18.3296H6.6ZM1.46667 31.5296V30.0629H2.41986C2.27555 30.5384 2.20143 31.0326 2.2 31.5296H1.46667ZM7.33333 35.1962C5.30843 35.1962 3.66667 33.5545 3.66667 31.5296C3.66667 29.5043 5.30843 27.8629 7.33333 27.8629C9.35824 27.8629 11 29.5043 11 31.5296C10.9975 33.5534 9.35752 35.1937 7.33333 35.1962ZM12.4667 31.5296C12.4652 31.0326 12.3911 30.5384 12.2468 30.0629H20.0199C19.8756 30.5384 19.8014 31.0326 19.8 31.5296H12.4667ZM24.9333 35.1962C22.9084 35.1962 21.2667 33.5545 21.2667 31.5296C21.2667 29.5043 22.9084 27.8629 24.9333 27.8629C26.9582 27.8629 28.6 29.5043 28.6 31.5296C28.5975 33.5534 26.9575 35.1937 24.9333 35.1962ZM33.7333 35.1962C31.7084 35.1962 30.0667 33.5545 30.0667 31.5296C30.0667 29.5043 31.7084 27.8629 33.7333 27.8629C35.7582 27.8629 37.4 29.5043 37.4 31.5296C37.3975 33.5534 35.7575 35.1937 33.7333 35.1962ZM40.4941 31.5296H38.8667C38.8652 31.0326 38.7911 30.5384 38.6468 30.0629H40.8568L40.4941 31.5296ZM42.5333 28.5962H37.9396C36.9825 27.218 35.4113 26.3962 33.7333 26.3962C32.0554 26.3962 30.4842 27.218 29.5271 28.5962H29.1396C28.1825 27.218 26.6113 26.3962 24.9333 26.3962C23.2554 26.3962 21.6842 27.218 20.7271 28.5962H15.4V17.5962C15.3993 17.4018 15.3219 17.2156 15.1852 17.0777L13.9333 15.8259V15.3962H42.5333V28.5962Z" fill="black"/>
<path d="M7.33336 29.3296C6.11842 29.3296 5.13336 30.3146 5.13336 31.5296C5.13336 32.7445 6.11842 33.7296 7.33336 33.7296C8.5483 33.7296 9.53336 32.7445 9.53336 31.5296C9.53336 30.3146 8.5483 29.3296 7.33336 29.3296ZM7.33336 32.2629C6.92838 32.2629 6.60003 31.9346 6.60003 31.5296C6.60003 31.1246 6.92838 30.7963 7.33336 30.7963C7.73834 30.7963 8.0667 31.1246 8.0667 31.5296C8.0667 31.9346 7.73834 32.2629 7.33336 32.2629Z" fill="black"/>
<path d="M24.9333 29.3296C23.7184 29.3296 22.7333 30.3146 22.7333 31.5296C22.7333 32.7445 23.7184 33.7296 24.9333 33.7296C26.1483 33.7296 27.1333 32.7445 27.1333 31.5296C27.1333 30.3146 26.1483 29.3296 24.9333 29.3296ZM24.9333 32.2629C24.5284 32.2629 24.2 31.9346 24.2 31.5296C24.2 31.1246 24.5284 30.7963 24.9333 30.7963C25.3383 30.7963 25.6667 31.1246 25.6667 31.5296C25.6667 31.9346 25.3383 32.2629 24.9333 32.2629Z" fill="black"/>
<path d="M33.7333 29.3296C32.5184 29.3296 31.5333 30.3146 31.5333 31.5296C31.5333 32.7445 32.5184 33.7296 33.7333 33.7296C34.9483 33.7296 35.9333 32.7445 35.9333 31.5296C35.9333 30.3146 34.9483 29.3296 33.7333 29.3296ZM33.7333 32.2629C33.3283 32.2629 33 31.9346 33 31.5296C33 31.1246 33.3283 30.7963 33.7333 30.7963C34.1383 30.7963 34.4667 31.1246 34.4667 31.5296C34.4667 31.9346 34.1383 32.2629 33.7333 32.2629Z" fill="black"/>
<path d="M26.4 9.5293H27.8667V10.996H26.4V9.5293Z" fill="black"/>
<path d="M29.3333 10.9961H30.8V12.4628H29.3333V10.9961Z" fill="black"/>
<path d="M22 10.9961H23.4667V12.4628H22V10.9961Z" fill="black"/>
<path d="M33.7333 10.9961H35.2V12.4628H33.7333V10.9961Z" fill="black"/>
<path d="M19.0667 17.5962H20.5333V24.9295H19.0667V17.5962Z" fill="black"/>
<path d="M23.4667 17.5962H24.9333V24.9295H23.4667V17.5962Z" fill="black"/>
<path d="M27.8666 17.5962H29.3333V24.9295H27.8666V17.5962Z" fill="black"/>
<path d="M32.2667 17.5962H33.7333V24.9295H32.2667V17.5962Z" fill="black"/>
<path d="M36.6667 17.5962H38.1334V24.9295H36.6667V17.5962Z" fill="black"/>
</g>
<defs>
<clipPath id="clip0">
<rect width="44" height="44" fill="white"/>
</clipPath>
</defs>
</svg>
