<svg width="44" height="44" viewBox="0 0 44 44" fill="none" xmlns="http://www.w3.org/2000/svg">
<path d="M43.3555 32.3837H42.3426L32.8535 16.5685C32.3132 15.6681 31.1542 15.3306 30.2149 15.8002L29.016 16.3997L23.5359 10.9195C23.1316 10.5153 22.5716 10.3 22.0016 10.3299C21.4308 10.3594 20.8967 10.6307 20.5363 11.0743L12.9104 20.4601L12.898 20.4548C12.0533 20.0927 11.0693 20.3466 10.5051 21.0721L1.70706 32.3837H0.644531C0.288578 32.3837 0 32.6723 0 33.0282C0 33.3842 0.288578 33.6728 0.644531 33.6728H43.3555C43.7114 33.6728 44 33.3842 44 33.0282C44 32.6723 43.7114 32.3837 43.3555 32.3837ZM21.5369 11.8871C21.6695 11.7239 21.8581 11.6281 22.0681 11.6172C22.2776 11.6063 22.4757 11.6823 22.6244 11.831L28.163 17.3696L27.8574 18.4145C27.7575 18.7562 27.9534 19.1141 28.2951 19.214C28.3555 19.2317 28.4164 19.2402 28.4763 19.2402C28.7553 19.2402 29.0124 19.0576 29.0947 18.7764L29.4285 17.6348L30.7915 16.9533C31.132 16.7831 31.5523 16.9054 31.7481 17.2319L40.8393 32.3838H36.7076L27.4652 24.3469L28.3033 21.4817C28.4032 21.14 28.2073 20.782 27.8656 20.6821C27.5239 20.5822 27.166 20.7781 27.066 21.1198L26.3944 23.4159L21.93 19.5338C21.1772 18.8791 20.0747 18.8677 19.3084 19.5063L16.3796 21.9469L14.1422 20.988L21.5369 11.8871ZM21.7216 32.3837L17.2829 22.8722L20.1338 20.4965C20.4116 20.2649 20.8114 20.2691 21.0843 20.5064L34.7432 32.3837H21.7216ZM11.5226 21.8634C11.7272 21.6003 12.0841 21.5083 12.3902 21.6396L16.0089 23.1904L20.299 32.3837H8.62873L11.5411 27.1412C11.7141 26.8301 11.6019 26.4377 11.2907 26.2649C10.9795 26.092 10.5872 26.2041 10.4143 26.5153L7.15404 32.3837H3.34013L11.5226 21.8634Z" fill="black"/>
</svg>
