<svg width="44" height="44" viewBox="0 0 44 44" fill="none" xmlns="http://www.w3.org/2000/svg">
<path d="M33.6875 26.1265C35.5829 26.1265 37.125 27.6685 37.125 29.564C37.125 31.4594 35.5829 33.0015 33.6875 33.0015C31.7921 33.0015 30.25 31.4594 30.25 29.564C30.25 27.6685 31.7921 26.1265 33.6875 26.1265ZM33.6875 31.6265C34.8246 31.6265 35.75 30.7011 35.75 29.564C35.75 28.4268 34.8246 27.5015 33.6875 27.5015C32.5504 27.5015 31.625 28.4268 31.625 29.564C31.625 30.7011 32.5504 31.6265 33.6875 31.6265Z" fill="black"/>
<path d="M17.8792 26.1265C19.7746 26.1265 21.3167 27.6685 21.3167 29.564C21.3167 31.4594 19.7746 33.0015 17.8792 33.0015C15.9837 33.0015 14.4417 31.4594 14.4417 29.564C14.4417 27.6685 15.9837 26.1265 17.8792 26.1265ZM17.8792 31.6265C19.0163 31.6265 19.9417 30.7011 19.9417 29.564C19.9417 28.4268 19.0163 27.5015 17.8792 27.5015C16.742 27.5015 15.8167 28.4268 15.8167 29.564C15.8167 30.7011 16.742 31.6265 17.8792 31.6265Z" fill="black"/>
<path d="M29.5604 19.9376H20.6271H20.6257H20.6243C20.5425 19.9376 20.4607 19.9184 20.3809 19.8881C20.3699 19.884 20.3596 19.8813 20.3486 19.8764C20.3383 19.8723 20.328 19.8703 20.3177 19.8654C20.2813 19.8476 20.2579 19.8173 20.2262 19.7939C20.1926 19.7685 20.1561 19.7479 20.1279 19.7169C20.0901 19.6778 20.0661 19.6324 20.0393 19.5863C20.0221 19.5568 20.0014 19.5299 19.9891 19.4976C19.9671 19.4399 19.9595 19.3801 19.9526 19.3182C19.9506 19.2948 19.9389 19.2742 19.9389 19.2501C19.9389 19.2453 19.9416 19.2405 19.9416 19.2357C19.943 19.1779 19.9595 19.1223 19.976 19.0652C19.9856 19.0329 19.9891 18.9985 20.0028 18.9683C20.0063 18.96 20.0056 18.9511 20.0097 18.9421L23.7923 11.3748C23.8116 11.3349 23.8446 11.3088 23.87 11.2744C23.8927 11.2449 23.9113 11.2133 23.9381 11.1878C23.9814 11.1466 24.0316 11.1184 24.0824 11.0902C24.1079 11.0764 24.1299 11.0593 24.1567 11.0483C24.2206 11.0228 24.2866 11.0132 24.3561 11.0077C24.3733 11.0063 24.3891 10.9974 24.4069 10.9974H24.4351C24.4434 10.9974 24.4503 10.9967 24.4585 10.9974H29.5598C29.9399 10.9974 30.2473 11.3054 30.2473 11.6849V19.2501C30.2479 19.6303 29.9406 19.9376 29.5604 19.9376ZM24.8311 12.3744L21.7374 18.5633H26.8125V12.3744H24.8311ZM28.1875 18.5626H28.8729V12.3738H28.1875V18.5626Z" fill="black"/>
<path d="M43.3125 30.2554C43.3049 30.2554 43.2994 30.2513 43.2926 30.2513H39.1401C38.7998 32.9593 36.4877 35.0638 33.6875 35.0638C31.6573 35.0638 29.8849 33.9548 28.9314 32.3138H22.6353C21.6817 33.9548 19.9093 35.0638 17.8791 35.0638C14.8466 35.0638 12.3791 32.5963 12.3791 29.5638C12.3791 28.8474 12.5208 28.1654 12.771 27.537L11.6889 27.9695L11.6868 31.627C11.6868 31.6332 11.6834 31.638 11.6834 31.6435C11.6813 31.7273 11.6662 31.8098 11.6339 31.8882C11.5988 31.9728 11.5486 32.0484 11.4847 32.1123L9.42356 34.1735C9.36031 34.2374 9.284 34.2876 9.19944 34.3227C9.11556 34.3577 9.02619 34.3756 8.93681 34.3756H0.6875C0.307312 34.3756 0 34.0683 0 33.6881C0 33.3079 0.307312 33.0006 0.6875 33.0006H0.991375L6.29544 24.3903C6.30988 24.3683 6.33119 24.3553 6.347 24.3353C6.37656 24.2968 6.4075 24.2625 6.44531 24.2308C6.47831 24.2033 6.51269 24.1813 6.54913 24.16C6.58831 24.1387 6.62544 24.1202 6.66875 24.1064C6.71413 24.0913 6.7595 24.0837 6.80694 24.0782C6.83237 24.0755 6.85437 24.0638 6.8805 24.0638H10.868L17.1882 21.5386L17.1861 19.2513C17.1861 19.2437 17.1903 19.2375 17.1903 19.2307C17.1916 19.1839 17.2067 19.1392 17.2177 19.0932C17.2287 19.0498 17.2343 19.0052 17.2528 18.9646C17.2563 18.957 17.2556 18.9502 17.259 18.9426L22.0715 9.31622C22.0866 9.28528 22.1141 9.26535 22.1327 9.23716C22.1616 9.1966 22.1863 9.15604 22.2227 9.12235C22.2557 9.0921 22.2943 9.07216 22.3321 9.04878C22.3692 9.0261 22.4036 9.00066 22.4448 8.98485C22.4923 8.96697 22.5417 8.96285 22.5919 8.95529C22.6243 8.95047 22.6531 8.93604 22.6868 8.93604H31.625C32.0052 8.93604 32.3125 9.24404 32.3125 9.62354V18.5645H40.5597C42.4566 18.5652 44 20.1086 44 22.0054V29.5679C44 29.9481 43.6927 30.2554 43.3125 30.2554ZM39.1401 28.8763H42.625V28.1915H39.0067C39.0644 28.415 39.1105 28.6425 39.1401 28.8763ZM33.6875 33.6888C35.9624 33.6888 37.8125 31.8387 37.8125 29.5638C37.8125 27.2888 35.9624 25.4388 33.6875 25.4388C31.4126 25.4388 29.5625 27.2888 29.5625 29.5638C29.5625 31.8387 31.4126 33.6888 33.6875 33.6888ZM30.9375 10.3117H23.1117L18.5618 19.4128L18.5659 24.1119C20.3039 24.3298 21.7896 25.3597 22.6332 26.8117H28.9334C29.4154 25.9819 30.1077 25.2903 30.9375 24.8083V10.3117ZM28.369 30.9388C28.2549 30.4981 28.1875 30.0388 28.1875 29.5638C28.1875 29.0873 28.2549 28.6274 28.3697 28.186H23.1976C23.3124 28.6274 23.3798 29.0873 23.3798 29.5638C23.3798 30.0388 23.3124 30.4981 23.1983 30.9388H28.369ZM17.8791 33.6888C20.1541 33.6888 22.0041 31.8387 22.0041 29.5638C22.0041 27.2888 20.1541 25.4388 17.8791 25.4388C15.6042 25.4388 13.7541 27.2888 13.7541 29.5638C13.7541 31.8387 15.6042 33.6888 17.8791 33.6888ZM8.65219 33.0013L10.3118 31.3417L10.3146 27.4972C10.3146 27.493 10.3139 27.4889 10.3146 27.4848L10.3153 25.4381H7.26481L2.607 33.0006H8.65219V33.0013ZM11.6909 25.216L11.6903 26.4886L14.2038 25.4842C15.0184 24.7499 16.0497 24.2556 17.1909 24.1119L17.1903 23.0195L11.6909 25.216ZM41.2472 20.0667V20.6263C41.2472 21.0058 40.9399 21.3138 40.5597 21.3138C40.1796 21.3138 39.8723 21.0058 39.8723 20.6263V19.9402H39.1875V20.6263C39.1875 21.0058 38.8802 21.3138 38.5 21.3138C38.1198 21.3138 37.8125 21.0058 37.8125 20.6263V19.9402H37.1277V20.6263C37.1277 21.0058 36.8204 21.3138 36.4402 21.3138C36.0601 21.3138 35.7527 21.0058 35.7527 20.6263V19.9402H35.068V20.6263C35.068 21.0058 34.7607 21.3138 34.3805 21.3138C34.0003 21.3138 33.693 21.0058 33.693 20.6263V19.9402H32.3125V24.2446C32.7532 24.1305 33.2124 24.0631 33.6875 24.0631C35.7191 24.0631 37.4921 25.1727 38.445 26.8158H42.625V22.0047C42.625 21.1089 42.0475 20.352 41.2472 20.0667Z" fill="black"/>
<path d="M28.886 22.001C28.5058 22.001 28.1985 21.693 28.1985 21.3135C28.1985 20.934 28.5058 20.626 28.886 20.626H29.5735C29.9537 20.626 30.261 20.934 30.261 21.3135C30.261 21.693 29.9537 22.001 29.5735 22.001H28.886Z" fill="black"/>
</svg>
